<svg viewBox="0 0 100 100">
      <!-- shadow -->
      <ellipse cx="50" cy="94" rx="10" ry="2" fill="#000" opacity="0.12"/>
      <!-- stick -->
      <rect x="47" y="46" width="6" height="46" rx="3" fill="#fdfaf0" stroke="#b8a679" stroke-width="2"/>
      <path d="M50 50v40" stroke="#d4c597" stroke-width="1" stroke-dasharray="2 3" opacity="0.7"/>
      <!-- candy disc base -->
      <circle cx="50" cy="36" r="28" fill="white" stroke="#c66a18" stroke-width="3"/>
      <!-- spiral swirl (smooth) -->
      <path d="M50 36 m-22 0 a22 22 0 1 1 44 0 a18 18 0 1 1 -36 0 a14 14 0 1 1 28 0 a10 10 0 1 1 -20 0 a6 6 0 1 1 12 0"
            fill="none" stroke="#f08a2c" stroke-width="6" stroke-linecap="round"/>
      <!-- swirl highlight -->
      <path d="M50 36 m-22 0 a22 22 0 1 1 44 0 a18 18 0 1 1 -36 0 a14 14 0 1 1 28 0 a10 10 0 1 1 -20 0"
            fill="none" stroke="#ffc080" stroke-width="1.5" stroke-linecap="round" opacity="0.6"/>
      <!-- outer ring -->
      <circle cx="50" cy="36" r="28" fill="none" stroke="#c66a18" stroke-width="3"/>
      <!-- gloss -->
      <ellipse cx="40" cy="22" rx="9" ry="5" fill="white" opacity="0.7"/>
      <ellipse cx="58" cy="50" rx="4" ry="2" fill="white" opacity="0.4"/>
      <!-- wrapper twist (bottom) -->
      <path d="M44 60q6 4 12 0l-2 6q-4 2-8 0z" fill="#ffc080" stroke="#c66a18" stroke-width="2" stroke-linejoin="round"/>
      <path d="M34 14.5L35.166666666666664 16.833333333333332L37.5 18L35.166666666666664 19.166666666666668L34 21.5L32.833333333333336 19.166666666666668L30.5 18L32.833333333333336 16.833333333333332z" fill="white" opacity="0.9"/>
      <path d="M70 25L71 27L73 28L71 29L70 31L69 29L67 28L69 27z" fill="white" opacity="0.9"/>
    </svg>
